<svg xmlns="http://www.w3.org/2000/svg" xmlns:xlink="http://www.w3.org/1999/xlink" width="2400" zoomAndPan="magnify" viewBox="0 0 600 149.999998" height="600" preserveAspectRatio="xMidYMid meet" version="1.0"><defs><g/></defs><rect x="-60" width="720" fill="#ffffff" y="-15" height="179.999997" fill-opacity="1"/><rect x="-60" width="720" fill="#000000" y="-15" height="179.999997" fill-opacity="1"/><g fill="#ffffff" fill-opacity="1"><g transform="translate(20.563425, 109.145464)"><g><path d="M 45.140625 1.4375 L 65.234375 1.4375 L 94.921875 -70.421875 L 94.921875 -80.25 L 15.453125 -80.25 L 15.453125 -70.421875 Z M 64.234375 -36.203125 L 55.078125 -11.375 L 54.53125 -11.375 L 45.359375 -36.203125 L 33.546875 -66.5625 L 76.375 -66.5625 Z M 64.234375 -36.203125 "/></g></g></g><g fill="#ffffff" fill-opacity="1"><g transform="translate(160.929915, 109.145464)"><g/></g></g><g fill="#ffffff" fill-opacity="1"><g transform="translate(189.183735, 109.145464)"><g><path d="M 47.578125 0 L 75.9375 -73.625 L 58.0625 -73.625 L 37.75 -17 L 17.328125 -73.625 L -0.546875 -73.625 L 27.921875 0 Z M 47.578125 0 "/></g></g></g><g fill="#ffffff" fill-opacity="1"><g transform="translate(264.674415, 109.145464)"><g><path d="M 75.9375 0 L 47.578125 -73.625 L 27.921875 -73.625 L -0.546875 0 L 16.671875 0 L 21.296875 -12.6875 L 54.1875 -12.6875 L 58.828125 0 Z M 49.890625 -26.265625 L 25.5 -26.265625 L 37.75 -60.046875 Z M 49.890625 -26.265625 "/></g></g></g><g fill="#ffffff" fill-opacity="1"><g transform="translate(340.165095, 109.145464)"><g><path d="M 54.078125 0 L 54.078125 -13.796875 L 22.953125 -13.796875 L 22.953125 -73.625 L 7.28125 -73.625 L 7.28125 0 Z M 54.078125 0 "/></g></g></g><g fill="#ffffff" fill-opacity="1"><g transform="translate(397.886772, 109.145464)"><g><path d="M 43.484375 0 L 43.484375 -30.125 L 71.640625 -73.625 L 53.75 -73.625 L 35.65625 -44.046875 L 17.328125 -73.625 L -0.546875 -73.625 L 27.8125 -30.125 L 27.8125 0 Z M 43.484375 0 "/></g></g></g><g fill="#ffffff" fill-opacity="1"><g transform="translate(469.073145, 109.145464)"><g><path d="M 7.28125 -29.359375 C 7.28125 -11.265625 17.765625 1.328125 40.28125 1.328125 C 62.578125 1.328125 73.0625 -11.140625 73.0625 -29.46875 L 73.0625 -73.625 L 57.171875 -73.625 L 57.171875 -29.90625 C 57.171875 -19.640625 51.546875 -12.578125 40.28125 -12.578125 C 28.8125 -12.578125 23.171875 -19.640625 23.171875 -29.90625 L 23.171875 -73.625 L 7.28125 -73.625 Z M 7.28125 -29.359375 "/></g></g></g></svg>